<svg width="40" height="40" viewBox="0 0 40 40" fill="none" xmlns="http://www.w3.org/2000/svg">
<path fill-rule="evenodd" clip-rule="evenodd" d="M20 40C31.0457 40 40 31.0457 40 20C40 8.9543 31.0457 0 20 0C8.9543 0 0 8.9543 0 20C0 31.0457 8.9543 40 20 40Z" fill="#274C5B"/>
<path fill-rule="evenodd" clip-rule="evenodd" d="M20 10.96L12 13.246V20.912C12 23.168 13.096 25.297 14.932 26.608L18.838 29.399C19.186 29.646 19.593 29.77 20 29.77C20.407 29.77 20.814 29.646 21.162 29.398L25.068 26.608C26.904 25.297 28 23.168 28 20.912V13.246L20 10.96ZM26 20.912C26 22.523 25.217 24.044 23.906 24.981L20 27.771L16.094 24.981C14.783 24.044 14 22.523 14 20.912V14.754L20 13.04L26 14.754V20.912Z" fill="#B3BDC7"/>
</svg>
